<?xml version="1.0" encoding="UTF-8"?>
<svg id="_レイヤー_1" data-name="レイヤー 1" xmlns="http://www.w3.org/2000/svg" xmlns:xlink="http://www.w3.org/1999/xlink" viewBox="0 0 999.67 999.67">
  <defs>
    <style>
      .cls-1 {
        fill: url(#_名称未設定グラデーション_363);
      }

      .cls-1, .cls-2, .cls-3 {
        stroke-width: 0px;
      }

      .cls-2 {
        fill: #ff6700;
      }

      .cls-3 {
        fill: #fff;
      }
    </style>
    <radialGradient id="_名称未設定グラデーション_363" data-name="名称未設定グラデーション 363" cx="479.91" cy="521.98" fx="479.91" fy="521.98" r="1633.9" gradientUnits="userSpaceOnUse">
      <stop offset="0" stop-color="#bf3000"/>
      <stop offset="1" stop-color="#bf3000" stop-opacity=".04"/>
    </radialGradient>
  </defs>
  <g>
    <path class="cls-2" d="M244.55,500c-95.47-113.8-44.31-333.77,153.51-333.77h332.74c5.19,0,9.84,2.3,13,5.93l255.86,255.86v-116.69c0-11.87,0-23.74-.07-35.6-.06-10-.17-19.99-.45-29.99-.59-21.78-1.87-43.75-5.75-65.28-3.93-21.85-10.34-42.18-20.45-62.03-9.94-19.51-22.92-37.37-38.41-52.84-15.48-15.48-33.35-28.45-52.86-38.39-19.87-10.11-40.23-16.52-62.1-20.45-21.54-3.87-43.51-5.15-65.29-5.74-10-.27-20-.38-30-.45-11.87-.07-23.75-.07-35.62-.07l-137.88-.49h-103.12l-135.44.49c-11.9,0-23.8,0-35.69.07-10.02.06-20.04.18-30.06.45-21.83.59-43.85,1.87-65.45,5.74-21.9,3.93-42.29,10.34-62.19,20.44-19.56,9.93-37.46,22.91-52.98,38.39-15.52,15.48-28.52,33.33-38.48,52.84-10.14,19.86-16.56,40.21-20.5,62.07-3.88,21.53-5.16,43.49-5.75,65.26-.27,9.99-.39,19.99-.45,29.99-.07,11.87-.68,26.61-.68,38.48v237.78l.62,136.4c0,11.88,0,23.77.07,35.65.06,10.01.18,20.02.45,30.03.59,21.81,1.88,43.81,5.76,65.37,3.94,21.88,10.36,42.24,20.49,62.12,9.96,19.54,22.97,37.42,38.48,52.92,15.52,15.5,33.41,28.49,52.97,38.44,19.91,10.13,40.31,16.55,62.22,20.48,21.58,3.87,43.6,5.16,65.42,5.75,10.02.27,20.04.39,30.06.45,11.9.07,23.79.07,35.69.07h163.75l-219.78-219.78c-73.59-72.51-77.47-201.43-11.65-279.89Z"/>
    <path class="cls-2" d="M688.66,999.67c11.87,0,23.75,0,35.62-.07,10-.06,20-.17,30-.45,21.79-.59,43.77-1.87,65.32-5.75,21.86-3.93,42.21-10.35,62.07-20.47,19.52-9.95,37.39-22.94,52.87-38.44,15.49-15.5,28.47-33.37,38.41-52.91,10.12-19.89,16.53-40.26,20.46-62.15,3.87-21.56,5.15-43.55,5.74-65.35.27-10.01.39-20.02.45-30.03.07-11.88.07-23.77.07-35.65v-260.37l-255.86-255.86c-3.16-3.63-7.81-5.93-13-5.93h-332.74c-197.82,0-248.98,219.96-153.51,333.77-65.82,78.46-61.94,207.38,11.65,279.89l219.78,219.78h212.68Z"/>
    <path class="cls-1" d="M688.66,999.67c11.87,0,23.75,0,35.62-.07,10-.06,20-.17,30-.45,21.79-.59,43.77-1.87,65.32-5.75,21.86-3.93,42.21-10.35,62.07-20.47,19.52-9.95,37.39-22.94,52.87-38.44,15.49-15.5,28.47-33.37,38.41-52.91,10.12-19.89,16.53-40.26,20.46-62.15,3.87-21.56,5.15-43.55,5.74-65.35.27-10.01.39-20.02.45-30.03.07-11.88.07-23.77.07-35.65v-260.37l-255.86-255.86c-3.16-3.63-7.81-5.93-13-5.93h-332.74c-197.82,0-248.98,219.96-153.51,333.77-65.82,78.46-61.94,207.38,11.65,279.89l219.78,219.78h212.68Z"/>
  </g>
  <path class="cls-3" d="M398.06,299.23h332.74c9.53,0,17.26-7.73,17.26-17.26v-98.48c0-9.53-7.73-17.26-17.26-17.26h-332.74c-197.82,0-248.98,219.96-153.51,333.77-95.47,113.8-44.31,333.77,153.51,333.77h332.74c9.53,0,17.26-7.73,17.26-17.26v-98.48c0-9.53-7.73-17.26-17.26-17.26h-332.74c-89.51,0-89.51-134.27,0-134.27h332.74c9.53,0,17.26-7.73,17.26-17.26v-98.48c0-9.53-7.73-17.26-17.26-17.26h-332.74c-89.51,0-89.51-134.27,0-134.27Z"/>
</svg>